<svg xmlns="http://www.w3.org/2000/svg" width="397.59" height="769.69" viewBox="0 0 397.59 769.69"><title>PEN</title><path d="M656.24,339.68c-33-26.41-73.12-39.45-101.06-45.76a329.46,329.46,0,0,0-94.31-.06c-28,6.29-68.21,19.35-101.28,45.81a1,1,0,0,0-.37.78v56.63a1,1,0,0,0,1.79.61,115.66,115.66,0,0,1,67.34-41.35c-32.49,11.14-45.67,25.93-54.86,40.45-1.56,2.46-1.93,4.46-1.12,5.93s2.65,2.2,5.49,2.2c4.25,0,10.71-1.66,18.2-4.66,31.74-12.75,68-19.28,110.87-20h.15l.72,0H508l.87,0,.18,0h.22c42.45.75,78.44,7.28,110,19.95,7.49,3,13.95,4.66,18.2,4.66,2.83,0,4.68-.74,5.48-2.2s.43-3.47-1.13-5.93c-9.19-14.52-22.37-29.32-54.88-40.46a115,115,0,0,1,67.83,42,1,1,0,0,0,1.79-.61V340.46A1,1,0,0,0,656.24,339.68Zm-273.46,15.9a2.46,2.46,0,0,1-1.11.26,2.5,2.5,0,0,1-1.12-4.74c.54-.26,54.39-26.41,116.15-29.33a1,1,0,0,0,.33-.07,2.56,2.56,0,0,1,1-.2h9.91a2.56,2.56,0,0,1,1,.2,1,1,0,0,0,.33.07c61.85,2.92,115.61,29.06,116.14,29.33a2.5,2.5,0,0,1-1.11,4.73,2.45,2.45,0,0,1-1.11-.26c-2.3-1.13-57-27.65-120.19-29C439.83,327.92,385.08,354.44,382.77,355.57Z" transform="translate(-311.48 -100.79)" fill="#fbc067"/><path d="M580.89,399.36a1,1,0,0,0-1.31.94c-.13,9.93-.12,20.11-.11,30,0,22.45.06,45.67-1.65,68.08a.32.32,0,1,1-.31,0c-1.68-22.46-1.61-45.71-1.55-68.2,0-10.38.06-21.11-.08-31.57a1,1,0,0,0-.71-.94A309.05,309.05,0,0,0,508,385.25h-.12c-.86,0-5.53.29-13,1.16a1,1,0,0,0-.87,1.15c.6,3.66.25,7.81-.07,11.47l-.12,1.5a51.74,51.74,0,0,1-3.27,15.57c.1-2.86.35-5.77.59-8.59.22-2.55.45-5.18.56-7.79.08-1.9,0-3.87-.06-5.77s-.15-4,0-5.95a1,1,0,0,0-1-1h-.13a323.92,323.92,0,0,0-36.2,6.92,1,1,0,0,0-.75,1,40.45,40.45,0,0,1-.22,5.66c-.1,1.15-.19,2.24-.22,3.27-.12,4.76-.38,9.86-.8,15.61-.28,3.84-.43,7.77-.58,11.57-.2,5.07-.41,10.26-.9,15.38-.24-5.29-.16-10.65-.09-15.88.05-3.94.11-8,0-12-.11-5.85-.07-11.28.1-16.6,0-.95,0-1.92,0-3s0-1.94,0-2.9a1,1,0,0,0-1-1,1,1,0,0,0-.26,0c-36.14,9.65-66.4,24.4-89.92,43.87a1,1,0,0,0-.36.77v99.74a1,1,0,0,0,.08.39,638.73,638.73,0,0,0,61.62,112.41c17.74,25.8,39.27,52,64,77.94a1,1,0,0,0,1.59-1.19,72,72,0,0,1-4.53-9.18,1,1,0,0,0-.14-.24c-25.64-32.66-46.1-67.28-60.84-102.89a.45.45,0,0,1,.34-.15c.09,0,.1,0,.11,0a675.42,675.42,0,0,0,55.31,88.92,1,1,0,0,0,.8.41,1,1,0,0,0,.33-.06,1,1,0,0,0,.67-1,30.32,30.32,0,0,1,1.11-9.31c1.72-6,4.83-10.33,9-12.59a1,1,0,0,0,.51-1c-1.26-8.41-1.28-15.37-.07-21.26,0-.11.22-.18.39-.18s.27,0,.28.13c.39,2.57.73,5.15,1.05,7.65.52,4,1.06,8.18,1.84,12.24a1,1,0,0,0,1,.81h.13a16.4,16.4,0,0,1,2.15-.14c6.35,0,13.13,3.65,17.27,9.29a1,1,0,0,0,.77.41h0a1,1,0,0,0,.76-.35l1.66-2c1.09-1.27,2.12-2.48,3.1-3.69,1.13-1.41,2.25-2.85,3.38-4.3a129.28,129.28,0,0,1,12-14,.09.09,0,0,1,.08.09,127.72,127.72,0,0,1-10.46,14.95c-1.15,1.49-2.3,3-3.42,4.46s-2,2.78-3.07,4.29c-.77,1.09-1.54,2.21-2.34,3.3a1,1,0,0,0-.11,1A19.62,19.62,0,0,1,517,706c-2.78,16.25-6.64,34.8-8.7,44.41a1,1,0,0,0,1.67.93c23-22.31,56.48-57.61,85-99.08a638.85,638.85,0,0,0,60.91-110.73,1,1,0,0,0-.71-1.37,44.77,44.77,0,0,0-9.5-1A36.37,36.37,0,0,0,625.4,545c-10.85,7.18-14,17.84-17.31,29.13-.61,2.08-1.25,4.24-1.93,6.36-3.6,11.23-9.15,18.68-16.47,22.13a18.1,18.1,0,0,1-7.76,1.75c-6.94,0-13.06-3.88-17-7.14a86.48,86.48,0,0,1-8.4-8.47c-5.48-6-11.15-12.29-19-14.73a17.66,17.66,0,0,0-5.22-.8c-6.72,0-12.5,3.93-18.08,7.73a59,59,0,0,1-9.28,5.55,25.32,25.32,0,0,1-10,2.32,14.72,14.72,0,0,1-12-5.86,34,34,0,0,1-3-4.71c-1.44-2.58-2.92-5.25-5.23-7.16a12.34,12.34,0,0,0-8.11-2.77,26.31,26.31,0,0,0-10.17,2.44A1,1,0,0,0,456,572c.07.2.14.41.22.61,1.15,3,2.69,6.9,4.49,10.71,1.56,3.31,3.39,6.54,5.16,9.65s3.57,6.29,5.1,9.54a.33.33,0,0,1,0,.33.26.26,0,0,1-.19.13.3.3,0,0,1-.17-.09c-6.7-6.33-12.43-15.92-17.51-29.31a1,1,0,0,0-1.38-.54c-5.13,2.53-10.25,5.25-15.21,7.88-6.14,3.25-12.48,6.62-18.85,9.63a22.36,22.36,0,0,1-9.22,2.16c-3,0-7-.81-8.55-4.66a1,1,0,0,0-1.41-.49c-.91.5-1.81,1-2.7,1.55a.52.52,0,0,1-.25.08.53.53,0,0,1-.44-.34.47.47,0,0,1,.1-.55c1.51-1.61,3-3.28,4.5-5a1.22,1.22,0,0,1,1-.42,1.88,1.88,0,0,1,1.3.57,1.35,1.35,0,0,1,.41,1,6.13,6.13,0,0,0,1.57,4.64,7.55,7.55,0,0,0,5.57,1.94,17.38,17.38,0,0,0,7.29-1.73c2.34-1.17,4.6-2.58,6.79-3.94,1-.61,2-1.22,3-1.81,3.83-2.28,7.63-4.69,11.31-7,2.68-1.7,5.45-3.45,8.2-5.13,2.16-1.32,5-3,8-4.44a1,1,0,0,0,.56-1c-1.9-23.84-.25-42.9,5.06-58.27,0-.07.16-.08.17-.11-.35,4.83-.94,9.72-1.51,14.46-.65,5.37-1.32,10.92-1.65,16.45a240.34,240.34,0,0,0-.07,25.9,1,1,0,0,0,1,1,1,1,0,0,0,.35-.06,26.3,26.3,0,0,1,9.22-1.88,15.66,15.66,0,0,1,10.09,3.49,15.19,15.19,0,0,1,3.72,4.41,1,1,0,0,0,.86.5h.15a1,1,0,0,0,.82-.77l.24-1.06c.2-.86.41-1.75.57-2.64a131.7,131.7,0,0,0,1.84-14.36c.33-4.8.27-9.65.22-14.34,0-3.91-.1-8,.08-11.93,0-.06,0-.17.16-.17s.12,0,.15.13c3,9.17,2.77,19.31,2.25,27.13-.28,4.26-.77,8.53-1.46,12.7-.1.57-.18,1.15-.27,1.74-.46,3.09-.94,6.28-2.7,8.6a1,1,0,0,0-.14,1l.08.23c2.27,6.5,6.32,9.94,11.72,9.94a15.25,15.25,0,0,0,3.29-.38c6-1.33,10.61-5.15,15.07-8.84,3.69-3.06,7.51-6.23,12-7.83a21.39,21.39,0,0,1,7.15-1.32c9.76,0,16.76,7.74,24.18,15.93,4.79,5.29,9.75,10.76,15.51,13.89a1,1,0,0,0,1.38-1.3c-4.33-9.21-5.66-20.14-3.91-32.48.13,0,.34.08.34.2.14,12.13,3.46,23.41,7,33.79a1,1,0,0,1,0,.64,1,1,0,0,0,.72,1.3,17.36,17.36,0,0,0,3.91.46c10.68,0,18.13-10.5,21.54-20.33,1.12-3.21,2-6.53,2.92-9.75,2-7.31,4.11-14.87,8.62-21.21,7-9.85,19.52-16.21,31.88-16.21a34.69,34.69,0,0,1,8.17,1l.24,0a1,1,0,0,0,1-1V439.73a1,1,0,0,0-.36-.77C636.06,422.26,610.71,408.94,580.89,399.36Z" transform="translate(-311.48 -100.79)" fill="#8567b8"/><path d="M577.4,243.42c.46,4.07.9,7.91,1.59,11.24a78.5,78.5,0,0,0,10.61,26.11,96.22,96.22,0,0,0,8.14,10.56c2.17,2.56,4.42,5.21,6.38,8a1,1,0,0,0,.53.38,337.9,337.9,0,0,1,46.72,17.74,1,1,0,0,0,1.31-1.38c-3.34-6.26-8.08-11.8-12.66-17.16L638,296.45c-9.4-11.11-18.41-22.1-25.21-34.4-1.08-1.95-2.13-3.9-3.18-5.83-6.36-11.74-12.37-22.84-22.34-32.08A61,61,0,0,0,570.37,213a1,1,0,0,0-1.19,1.54C574.94,221.82,576.24,233.3,577.4,243.42Z" transform="translate(-311.48 -100.79)" fill="#30c8aa"/><path d="M548,254.49c3.56,3.81,6.89,7.93,10.42,12.28,9.24,11.41,18.8,23.2,32.42,29a4,4,0,0,1,.42.21,1,1,0,0,0,.25.1c1.3.33,2.59.67,3.89,1h0a1,1,0,0,0,.93-1.71c-10.85-9.75-16.67-25.65-18.67-32-1.83-5.83-2.62-11.94-3.39-17.86-.53-4.08-1.08-8.3-2-12.44a57.44,57.44,0,0,0-9.31-21,1,1,0,0,0-.83-.44h0a1,1,0,0,0-.83.44c-6.84,10-16.63,19.13-28.32,26.34a1,1,0,0,0-.14,1.6C537.53,244.13,543,249.09,548,254.49Z" transform="translate(-311.48 -100.79)" fill="#90e8d7"/><path d="M474.23,189c4,1.57,7.7,5.07,11.27,8.45,1,.94,2,1.87,3,2.76L502,212.41a1,1,0,0,0,.67.26,29.52,29.52,0,1,0-29.05-24.42A1,1,0,0,0,474.23,189Z" transform="translate(-311.48 -100.79)" fill="#fbb040"/><path d="M534,286.53l-.68,0c-1.53-.12-3-.22-4.58-.32h0c-2.27-.15-4.59-.27-6.9-.36-4.63-.2-9.33-.3-14-.3A341,341,0,0,0,363.26,318a.94.94,0,0,1-.43.1,1,1,0,0,1-.94-1.35c5.55-14.81,16.73-26.6,28-37.14a1.36,1.36,0,0,1,.38-.24c1.56-.53,3.1-1.1,4.65-1.68,2.63-1,5.36-2,8.1-2.79,5.89-1.73,12-3.26,18.23-4.56,7.19-1.5,16.88-4.07,23.19-9.56a38,38,0,0,1-11.21,5.37,130.82,130.82,0,0,1-19.26,3.5A88.28,88.28,0,0,0,400.89,272a.84.84,0,0,1-.27,0,1,1,0,0,1-.67-1.74c7.24-6.61,15.44-14.11,22.39-22.5,5.21-6.3,9.88-13.22,14.4-19.9.8-1.18,1.59-2.36,2.39-3.53,5.41-7.94,11.33-16.28,18.85-23.27l.83-.78c3-2.87,7.2-6.79,11.48-6.79h.35a1,1,0,0,1,.81.48c3,5,2.27,10.55,1.58,16-.48,3.8-1,7.72-.22,11.44a25.66,25.66,0,0,0,15.4,18.49c.77.33,1.61.66,2.73,1.06a1,1,0,0,1,.59.57c2.06,5.14.31,10.25-1.39,15.19s-3.26,9.53-1.23,14c-.18-4,1.45-8.23,3-12.34,2-5.23,3.91-10.18,2.26-14.42a1,1,0,0,1,.23-1.08,1,1,0,0,1,.7-.28.84.84,0,0,1,.38.08,18.93,18.93,0,0,1,5.88,3.58c3.3,3.14,4,7.9,4.64,12.11.11.72.22,1.43.34,2.12,1.48,8.79,9.52,13,16.3,14.91l0,0C523.17,275.83,531,281.74,534,286.53Z" transform="translate(-311.48 -100.79)" fill="#90e8d7"/><path d="M572,290.93a1,1,0,0,1-.89.55l-.19,0A338.59,338.59,0,0,0,534,286.53c-3-4.79-10.87-10.7-11.36-11.06l0,0a34.91,34.91,0,0,0-4.55-2.5c-3.26-1.58-6.63-3.22-8.57-6.42-1.82-3-1.73-6.28-1.65-9.42a26,26,0,0,0-.19-5.15c-1.37-8.18-8.72-11.08-15.84-13.88l-1-.38a24.74,24.74,0,0,1-12.77-10.51c-3.58-6-3.71-11.58-2.82-18.19a32.54,32.54,0,0,0,0-11.3,1,1,0,0,1,.43-1.07,1,1,0,0,1,.54-.16,1,1,0,0,1,.62.21,62.76,62.76,0,0,1,5.17,4.65s0,0,0,0l2.47,2.45c1.23,1.25,2.44,2.45,3.62,3.52l7,6.33,21.51,19.39c2.38,2.14,4.79,4.26,7.2,6.38,6.61,5.82,13.45,11.84,19.6,18.32,4,4.15,7.76,8.81,11.44,13.32,5.27,6.45,10.72,13.11,16.83,18.66A1,1,0,0,1,572,290.93Z" transform="translate(-311.48 -100.79)" fill="#30c8aa"/><path d="M534.83,288l-1.47-1.52.68,0A10.7,10.7,0,0,1,534.83,288Z" transform="translate(-311.48 -100.79)" fill="#fff200"/><path d="M658.66,417.45l-34.33-7V543L618,547.67V405l-12.5-1.57V580.25L600,592l-11.25,9-10.09,1-10.21-5.27-12.19-10.91-16-12.59L527,571.63,507.91,583.3,498,587.75h-6.17l-6.43-5.5-7.87-12.85L464,565.75l-16.5,7.75-5.8,2.84-.56-1.48-13.33,8.31-12.33,8-10-.57-3.42-2-35.47-29.41L394,615.56l51,74.78,64.33,66.44L575,682.33l44.67-64L660,539.13Zm-168,311.34,1.06.78.09.93Z" transform="translate(-311.48 -100.79)" fill="#c6b7de"/><polygon points="266.27 291.25 266.27 399.21 277.95 295.06 266.27 291.25" fill="#c6b7de"/><path d="M383.22,356.47c.57-.28,56.32-27.54,119.74-28.92,63.42,1.38,119.16,28.64,119.73,28.92a3.45,3.45,0,0,0,1.55.36,3.5,3.5,0,0,0,1.56-6.63c-.57-.28-54.09-26.48-116.54-29.43a3.57,3.57,0,0,0-1.35-.27H498a3.57,3.57,0,0,0-1.35.27c-62.45,3-116,29.15-116.54,29.43a3.5,3.5,0,0,0,3.11,6.27Z" transform="translate(-311.48 -100.79)" fill="#231f20"/><path d="M662.61,537.23V323.94a3.38,3.38,0,0,0-.35-1.51h0c-3-11-10.83-20-18-28.6-10.12-12-20.17-24-27.45-38-12.18-23.46-27.37-45.6-54.43-52.43a3.84,3.84,0,0,0-4.23,1.73C551,217,539.7,227,527.67,234c-2.86-2.5-5.72-5-8.53-7.53l-12.32-11.1a32.48,32.48,0,1,0-36.41-28.27,13.64,13.64,0,0,0-7.78,2.13c-8.61,5.1-15.54,13.32-21.51,21.19-6.42,8.46-12,17.54-18.23,26.12-7,9.66-15.44,18-24.21,26.11-18.2,16.75-39.32,34.11-45.19,59.34a4.21,4.21,0,0,0-.11.83,3.54,3.54,0,0,0-.17,1.08V540.18a3.35,3.35,0,0,0,.28,1.36A644.93,644.93,0,0,0,416,655.67c30,43.58,65.22,80.41,89.53,103.63a3.5,3.5,0,0,0,4.84,0c24.31-23.22,59.57-60,89.53-103.63a645.62,645.62,0,0,0,62.48-114.13.49.49,0,0,0,0-.11h0A3.17,3.17,0,0,0,662.61,537.23ZM507.91,291.5A331.83,331.83,0,0,1,555,294.91c29.76,6.72,68.52,19.88,100.58,45.55v57.22c-8.43-11-34.67-39.82-81.91-44.35,39.76,10.77,56,26,67.33,44,5.37,8.48-5.47,8.37-21.33,2-37.5-15-77-19.43-110.37-20H509l-1,0h-.26l-.81,0h-.07c-33.54.54-73.41,4.85-111.23,20-15.86,6.37-26.7,6.48-21.34-2,11.37-18,27.58-33.23,67.34-44-46.42,4.45-72.56,32.31-81.46,43.76V340.46c32.17-25.75,71.07-38.91,100.87-45.62A329.27,329.27,0,0,1,507.91,291.5Zm78.63-66.62c11.52,10.67,17.86,24.17,25.33,37.66,7,12.56,16.08,23.64,25.32,34.56,5.1,6,10.8,12.29,14.6,19.4a338,338,0,0,0-46.86-17.79c-4.52-6.36-10.27-11.82-14.49-18.48A77.75,77.75,0,0,1,580,254.45c-2.42-11.62-1.74-30.08-10-40.5A60,60,0,0,1,586.54,224.88Zm-24.36-12.26a56.65,56.65,0,0,1,9.16,20.6c2.16,10.12,2.25,20.45,5.37,30.39,3.37,10.76,9.69,24.15,19,32.48-1.31-.35-2.62-.7-3.94-1a5,5,0,0,0-.52-.26c-18.42-7.78-29.39-26.94-42.49-41-4.76-5.11-9.91-9.88-15.16-14.56C544.61,232.43,554.89,223.3,562.18,212.62Zm-88-29.45a28.5,28.5,0,1,1,28.5,28.5l-13.53-12.19c-4.61-4.15-9.22-9.31-14.54-11.4A28.29,28.29,0,0,1,474.17,183.17ZM390.58,280.3a0,0,0,0,0,0,0c4.24-1.46,8.41-3.2,12.7-4.46,6-1.76,12-3.26,18.15-4.54,9.15-1.91,20.9-5.27,26.79-13.15.32-.42-.3-1-.72-.72-4.71,3.29-8.88,6.2-14.55,7.74a134.72,134.72,0,0,1-19.12,3.47,88.31,88.31,0,0,0-13.22,2.45c7.86-7.18,15.69-14.39,22.49-22.6C429.26,241,434.54,232.94,440,225c5.59-8.2,11.4-16.31,18.7-23.1,2.9-2.69,7.56-7.52,11.93-7.29,4.84,8-.65,17.82,1.24,27.07a26.61,26.61,0,0,0,16,19.21c.9.39,1.83.74,2.78,1.08,4.23,10.55-8.91,21.41-1.13,31.69.3.39,1,.19.85-.36-2.66-9.21,8.29-20.67,4.8-29.62a18.11,18.11,0,0,1,5.57,3.39c3.59,3.41,3.89,9,4.68,13.67,1.51,8.92,9.44,13.66,17.75,15.91.78.21,1.58-.91.85-1.47-4.23-3.28-10.71-4.4-13.57-9.14-2.65-4.39-.9-9.43-1.71-14.22-1.53-9.11-9.82-12-17.41-15A23.86,23.86,0,0,1,479,226.67c-3.43-5.7-3.56-11.1-2.69-17.54.43-3.22.83-7.79-.07-11.66a61.74,61.74,0,0,1,5.09,4.57.08.08,0,0,0,0,0l2.46,2.45c1.24,1.25,2.45,2.46,3.66,3.55l7.36,6.63L516,233.8c9,8.09,18.42,15.88,26.75,24.65,9.51,10,17.82,22.51,28.32,32a337.52,337.52,0,0,0-42.26-5.32q-3.46-.22-6.93-.36-7-.3-14-.3a341.28,341.28,0,0,0-145.08,32.57C368.26,302.57,379.23,290.92,390.58,280.3ZM594.09,651.7c-28.11,40.9-61,75.83-84.85,98.93,2-9.43,5.92-28.12,8.71-44.45a20.74,20.74,0,0,0-1.42-11.85c1.87-2.58,3.64-5.23,5.4-7.58,4.75-6.32,10.07-12.63,14-19.52a1.06,1.06,0,0,0-1.66-1.28c-5.71,5.47-10.52,12.18-15.46,18.35-1.47,1.82-3.12,3.69-4.75,5.62-4.82-6.57-12.94-10.53-20.35-9.55-1.25-6.54-1.86-13.13-2.89-19.86-.2-1.34-2.38-1.27-2.64,0-1.42,6.92-1,14.38.06,21.61-4.1,2.21-7.56,6.43-9.5,13.19a31.17,31.17,0,0,0-1.15,9.62,678.73,678.73,0,0,1-55.23-88.79c-.63-1.21-2.78-.36-2.25.95,15.24,36.84,36.27,71.65,61,103.12a73.1,73.1,0,0,0,4.59,9.31c-20.25-21.23-43.34-47.93-63.89-77.82a637.67,637.67,0,0,1-61.52-112.23V439.73c27.8-23,61.4-36.16,89.54-43.67,0,2,.09,4,0,5.84-.18,5.55-.2,11.09-.1,16.65.21,10.71-.55,21.64.34,32.31.06.63,1.09.89,1.19.17,1.42-10.38,1.26-21.06,2-31.51.38-5.22.67-10.43.8-15.66.07-2.66.61-6,.43-9a324.85,324.85,0,0,1,36.09-6.9c-.19,3.88.27,7.9.11,11.72-.25,5.63-1,11.23-1.17,16.86,0,1.16,1.5,1.19,1.88.26a54.9,54.9,0,0,0,3.4-16.18c.33-4.12.88-8.92.18-13.21,7.43-.86,12.12-1.11,13-1.15H508a306.53,306.53,0,0,1,66.91,12.31c.45,33.08-.83,66.94,1.63,99.84.16,2.13,2.14,2.13,2.3,0,2.47-32.31,1.32-65.57,1.76-98.09,24.69,7.93,51.87,20.26,75,39.42v94.73c-15-3.64-32.13,3-41.1,15.64-6.6,9.28-8,20.7-11.67,31.21s-12,22.07-24.28,19.23a2,2,0,0,0,0-1.29c-3.74-10.87-6.85-21.88-7-33.48,0-1.31-2.18-1.71-2.38-.32-1.56,11.3-.83,22.66,4,33-16.16-8.76-25.72-36.37-47.66-28.56-10.14,3.6-16.27,14.27-27,16.64-7.31,1.62-11.59-2.43-13.85-8.91l-.09-.25c2.26-3,2.55-7.12,3.16-10.78.7-4.23,1.19-8.51,1.47-12.8.6-9,.53-18.8-2.3-27.5a1.16,1.16,0,0,0-2.26.31c-.4,8.75.31,17.49-.3,26.25a131.23,131.23,0,0,1-1.83,14.25c-.22,1.23-.53,2.45-.8,3.66a16.24,16.24,0,0,0-4-4.69c-6.23-4.94-13.46-4.31-20.28-1.76a241.15,241.15,0,0,1,.07-25.79c.62-10.36,2.41-20.57,3.16-30.89.09-1.27-1.73-1.38-2.11-.29-6.26,18.14-6.64,39.5-5.11,58.68a91.86,91.86,0,0,0-8.09,4.49c-6.53,4-12.9,8.21-19.5,12.14-3.2,1.91-6.35,4-9.68,5.72-4.27,2.13-13.2,3.29-13-3.93.07-2.15-2.92-3.51-4.41-1.82s-3,3.31-4.48,4.93a1.51,1.51,0,0,0,1.82,2.37c.89-.52,1.79-1,2.69-1.54,2.85,6.91,12.76,6,19.13,3,11.54-5.46,22.62-11.87,34.08-17.52,4,10.59,9.57,21.94,17.76,29.68a1.26,1.26,0,0,0,2-1.52c-3.08-6.56-7.17-12.62-10.26-19.19-1.64-3.48-3.08-7.05-4.46-10.64q-.12-.3-.21-.57c5.49-2.33,12.28-3.94,17.25.18,3.61,3,5.15,8.1,8,11.72,6.06,7.58,14.74,7.46,23.11,3.83,10.32-4.49,19.45-16.28,31.89-12.44,11.52,3.56,18.27,15.66,27.1,23,7.27,6,16.66,9.82,25.8,5.52,9-4.23,14.1-13.69,17-22.73,4.3-13.36,6.29-26.65,18.84-35,8.59-5.7,19.08-6.81,29-4.66A637.66,637.66,0,0,1,594.09,651.7Z" transform="translate(-311.48 -100.79)" fill="#231f20"/><path d="M396.67,185.17h49.71a2,2,0,0,0,0-4H396.67a2,2,0,0,0,0,4Z" transform="translate(-311.48 -100.79)" fill="#231f20"/><path d="M434.22,201.8,429,203.29c-7.12,2-14.48,4.13-21.63,6.55a2,2,0,1,0,1.28,3.79c7.06-2.39,14.38-4.48,21.45-6.5l5.23-1.5a2,2,0,0,0-1.11-3.84Z" transform="translate(-311.48 -100.79)" fill="#231f20"/><path d="M546,211.75l-7.82-5.94a2,2,0,1,0-2.42,3.19l7.82,5.94a2,2,0,0,0,2.42-3.19Z" transform="translate(-311.48 -100.79)" fill="#231f20"/><path d="M406.44,138.67l14.21,6.9a2,2,0,1,0,1.75-3.6l-14.21-6.9a2,2,0,0,0-1.75,3.6Z" transform="translate(-311.48 -100.79)" fill="#231f20"/><path d="M429,149.61l22.19,10.77a2,2,0,0,0,1.75-3.6L430.71,146a2,2,0,0,0-1.75,3.6Z" transform="translate(-311.48 -100.79)" fill="#231f20"/><path d="M464.45,141.79a2,2,0,1,0,3-2.61l-32.41-37.69a2,2,0,0,0-3,2.61Z" transform="translate(-311.48 -100.79)" fill="#231f20"/><path d="M484.41,129.92a2,2,0,1,0,3.78-1.3l-6.15-18a2,2,0,0,0-3.78,1.3Z" transform="translate(-311.48 -100.79)" fill="#231f20"/><path d="M509.81,129.35l.27,0a2,2,0,0,0,2-1.74l2.9-21.88a2,2,0,0,0-4-.53l-2.9,21.88A2,2,0,0,0,509.81,129.35Z" transform="translate(-311.48 -100.79)" fill="#231f20"/><path d="M532.63,137.89a2,2,0,0,0,2.77-.56l9.55-14.42a2,2,0,0,0-3.34-2.21l-9.55,14.42A2,2,0,0,0,532.63,137.89Z" transform="translate(-311.48 -100.79)" fill="#231f20"/><path d="M550.74,155.87a2,2,0,0,0,1.19-.39,117.16,117.16,0,0,1,14-8.47c1.88-1,3.83-2.08,5.73-3.16a2,2,0,0,0-2-3.47c-1.86,1.06-3.79,2.11-5.65,3.12a120.28,120.28,0,0,0-14.49,8.77,2,2,0,0,0,1.19,3.61Z" transform="translate(-311.48 -100.79)" fill="#231f20"/><path d="M588.75,170.31l.34,0,11.57-2a2,2,0,0,0-.68-3.94l-11.57,2a2,2,0,0,0,.34,4Z" transform="translate(-311.48 -100.79)" fill="#231f20"/><path d="M556.17,173.94a2,2,0,0,0,2,1.66l.34,0,18.37-3.17a2,2,0,1,0-.68-3.94l-18.37,3.17A2,2,0,0,0,556.17,173.94Z" transform="translate(-311.48 -100.79)" fill="#231f20"/><path d="M576.14,192.54a2,2,0,1,0-.58,4l21.15,3.13.29,0a2,2,0,0,0,.29-4Z" transform="translate(-311.48 -100.79)" fill="#231f20"/><path d="M547.53,192.35l15.16,2.24.29,0a2,2,0,0,0,.29-4l-15.16-2.24a2,2,0,1,0-.58,4Z" transform="translate(-311.48 -100.79)" fill="#231f20"/><path d="M358.68,265.12c1,.74,2.12-.3,2.24-1.28a12,12,0,0,1,2.42-6.18c1-1.24,2.31-2.09,3.16-3.41a.37.37,0,0,0-.32-.56c-3.46.43-6.13,4.44-7.51,7.84a7.58,7.58,0,0,0-4.48-.84c-2.73.32-3.81,1.77-4.88,4.1-.38.82.61,1.75,1.32,1A6.83,6.83,0,0,1,358.68,265.12Z" transform="translate(-311.48 -100.79)" fill="#231f20"/><path d="M626.76,230.49c2.75-1.1,6.24-.56,7.82,2.2a5.25,5.25,0,0,1-.61,5.68,9.27,9.27,0,0,0-2.66,2.23l-.29.13a1.19,1.19,0,0,0,.55,2.13c3.75-1.32,7-3.16,11.16-2.1,3.27.83,5.53,3.22,8.22,5.06.8.54,1.7-.35,1.52-1.17-1.35-6.2-9.14-8.94-15.3-7.51a7,7,0,0,0-.27-4.85,7.22,7.22,0,0,0-10.73-2.81C625.71,229.84,626.21,230.71,626.76,230.49Z" transform="translate(-311.48 -100.79)" fill="#231f20"/><path d="M357.2,232.35a27.57,27.57,0,0,1-4.88-2.84c1.28-3,1.74-6.13,4.37-8.67a11.69,11.69,0,0,1,15.73-.41c.52.43,1.27-.3.75-.75-4.55-3.88-10.87-5.33-16.46-2.76-3.46,1.59-7.54,6.2-7.72,10.51-2.45-1.32-5-2-8-.82-4.62,1.91-6.65,7.05-7,11.68a.59.59,0,0,0,1.09.3c2.48-4.95,4.24-11.75,11.54-8.93,3.51,1.36,6.28,4,9.9,5.22C358.13,235.41,358.72,233,357.2,232.35Z" transform="translate(-311.48 -100.79)" fill="#231f20"/><path d="M327.44,793.46q12.66,0,19.47,4.81t6.81,14.36a19.51,19.51,0,0,1-1.86,8.89,15.29,15.29,0,0,1-5.38,6,24.55,24.55,0,0,1-8.54,3.34,56.31,56.31,0,0,1-11.36,1h-6.68v22.29h-8.41V794.93a47.62,47.62,0,0,1,7.94-1.17Q323.79,793.46,327.44,793.46Zm.69,7.37q-5.38,0-8.24.26v23.59h6.33a48.84,48.84,0,0,0,7.81-.56,17.64,17.64,0,0,0,5.85-1.91,9.41,9.41,0,0,0,3.69-3.69,12.23,12.23,0,0,0,1.3-6,11,11,0,0,0-1.34-5.72,10.14,10.14,0,0,0-3.64-3.6,15.78,15.78,0,0,0-5.33-1.87A38,38,0,0,0,328.13,800.83Z" transform="translate(-311.48 -100.79)"/><path d="M380.34,808.12q1,0,2.39.13t2.65.35q1.3.22,2.39.43a14.66,14.66,0,0,1,1.6.39l-1.39,7a27.31,27.31,0,0,0-3.17-.82,27.8,27.8,0,0,0-5.68-.48,21.17,21.17,0,0,0-4.47.48q-2.21.48-2.91.65v37.9h-8.07V811a54.78,54.78,0,0,1,7.11-2A45.66,45.66,0,0,1,380.34,808.12Z" transform="translate(-311.48 -100.79)"/><path d="M394.65,831.71a28.78,28.78,0,0,1,1.73-10.45,21.85,21.85,0,0,1,4.6-7.42,18.7,18.7,0,0,1,6.59-4.42,20.6,20.6,0,0,1,7.63-1.47q9.11,0,14,5.68t4.86,17.3v1.34a12.5,12.5,0,0,1-.09,1.52H403.07q.52,7,4.08,10.67t11.1,3.64a29.56,29.56,0,0,0,7.16-.74,25.69,25.69,0,0,0,4.38-1.43l1.13,6.77a24,24,0,0,1-5.16,1.65,36.75,36.75,0,0,1-8.37.87,26.56,26.56,0,0,1-10.19-1.78,19,19,0,0,1-7.07-4.9,20,20,0,0,1-4.12-7.42A31.32,31.32,0,0,1,394.65,831.71Zm31-4.42a13.54,13.54,0,0,0-2.73-9,9.41,9.41,0,0,0-7.76-3.51,10.65,10.65,0,0,0-4.9,1.08,11.55,11.55,0,0,0-3.6,2.82,13,13,0,0,0-2.3,4,19.65,19.65,0,0,0-1.08,4.6Z" transform="translate(-311.48 -100.79)"/><path d="M453.2,809.07h17.09v6.77H453.2v20.82a25,25,0,0,0,.52,5.59,8.39,8.39,0,0,0,1.56,3.47,5.61,5.61,0,0,0,2.6,1.78,11.53,11.53,0,0,0,3.64.52,17.09,17.09,0,0,0,5.85-.82q2.21-.82,3.08-1.17L472,852.7a29.87,29.87,0,0,1-4.25,1.52,24.16,24.16,0,0,1-6.94.91,21,21,0,0,1-7.59-1.17,11,11,0,0,1-4.81-3.51,14.06,14.06,0,0,1-2.56-5.77,38,38,0,0,1-.74-7.94V796.49l8.07-1.39Z" transform="translate(-311.48 -100.79)"/><path d="M488.07,809.07h17.09v6.77H488.07v20.82a25,25,0,0,0,.52,5.59,8.41,8.41,0,0,0,1.56,3.47,5.61,5.61,0,0,0,2.6,1.78,11.53,11.53,0,0,0,3.64.52,17.1,17.1,0,0,0,5.85-.82q2.21-.82,3.08-1.17l1.56,6.68a29.87,29.87,0,0,1-4.25,1.52,24.17,24.17,0,0,1-6.94.91,21,21,0,0,1-7.59-1.17,11,11,0,0,1-4.81-3.51,14.06,14.06,0,0,1-2.56-5.77,38,38,0,0,1-.74-7.94V796.49l8.07-1.39Z" transform="translate(-311.48 -100.79)"/><path d="M510.1,862.58a15.23,15.23,0,0,0,2.47.82,12,12,0,0,0,3,.39q4.77,0,7.46-2.12a18.32,18.32,0,0,0,4.86-6.9q-5.46-10.41-10.19-22.07a191.68,191.68,0,0,1-7.85-23.64h8.67q1,3.9,2.3,8.41t3,9.28q1.65,4.77,3.56,9.54t4,9.19q3.29-9.11,5.72-18t4.6-18.39H550q-3.12,12.75-6.94,24.5t-8.24,22a46.35,46.35,0,0,1-3.6,6.72,20.28,20.28,0,0,1-4.12,4.64,15,15,0,0,1-5.07,2.69,21.67,21.67,0,0,1-6.37.87,16.07,16.07,0,0,1-2-.13c-.69-.09-1.37-.2-2-.35s-1.27-.3-1.82-.48a9,9,0,0,1-1.17-.43Z" transform="translate(-311.48 -100.79)"/><path d="M586.77,849.66a21.47,21.47,0,0,1-4,1.78,20.46,20.46,0,0,1-7,1.08,22.4,22.4,0,0,1-7.68-1.3,16.66,16.66,0,0,1-6.29-4,19.48,19.48,0,0,1-4.25-6.81,27.17,27.17,0,0,1-1.56-9.71,26.7,26.7,0,0,1,1.47-9.06,20.11,20.11,0,0,1,4.29-7.11,19.68,19.68,0,0,1,6.9-4.68,23.78,23.78,0,0,1,9.19-1.69,51.8,51.8,0,0,1,9.84.82q4.21.82,7.07,1.52V850.7q0,10.41-5.38,15.09t-16.31,4.68a44.4,44.4,0,0,1-8-.69,46.2,46.2,0,0,1-6.55-1.65l1.47-7a37.55,37.55,0,0,0,5.94,1.69,35.61,35.61,0,0,0,7.33.74q7.2,0,10.37-2.86t3.17-9.11Zm-.09-33.48a27,27,0,0,0-3.25-.65,39.28,39.28,0,0,0-5.51-.3q-6.5,0-10,4.25t-3.51,11.28a19.81,19.81,0,0,0,1,6.68,13.21,13.21,0,0,0,2.69,4.6,10.52,10.52,0,0,0,3.9,2.69,12.35,12.35,0,0,0,4.55.87,18.31,18.31,0,0,0,5.9-.91,14.54,14.54,0,0,0,4.25-2.12Z" transform="translate(-311.48 -100.79)"/><path d="M612.62,800.92a5.17,5.17,0,0,1-3.69-1.43,5.67,5.67,0,0,1,0-7.72,5.47,5.47,0,0,1,7.37,0,5.67,5.67,0,0,1,0,7.72A5.18,5.18,0,0,1,612.62,800.92Zm4.08,53.26h-8.07v-45.1h8.07Z" transform="translate(-311.48 -100.79)"/><path d="M658.85,849.66a21.47,21.47,0,0,1-4,1.78,20.46,20.46,0,0,1-7,1.08,22.4,22.4,0,0,1-7.68-1.3,16.66,16.66,0,0,1-6.29-4,19.48,19.48,0,0,1-4.25-6.81,27.17,27.17,0,0,1-1.56-9.71,26.7,26.7,0,0,1,1.47-9.06,20.11,20.11,0,0,1,4.29-7.11,19.68,19.68,0,0,1,6.9-4.68,23.78,23.78,0,0,1,9.19-1.69,51.8,51.8,0,0,1,9.84.82q4.21.82,7.07,1.52V850.7q0,10.41-5.38,15.09t-16.31,4.68a44.4,44.4,0,0,1-8-.69,46.2,46.2,0,0,1-6.55-1.65l1.47-7A37.55,37.55,0,0,0,638,862.8a35.61,35.61,0,0,0,7.33.74q7.2,0,10.37-2.86t3.17-9.11Zm-.09-33.48a27,27,0,0,0-3.25-.65,39.28,39.28,0,0,0-5.51-.3q-6.5,0-10,4.25t-3.51,11.28a19.81,19.81,0,0,0,1,6.68,13.21,13.21,0,0,0,2.69,4.6,10.52,10.52,0,0,0,3.9,2.69,12.35,12.35,0,0,0,4.55.87,18.31,18.31,0,0,0,5.9-.91,14.54,14.54,0,0,0,4.25-2.12Z" transform="translate(-311.48 -100.79)"/><path d="M691.2,848.36q4.94,0,7.33-1.3a4.4,4.4,0,0,0,2.39-4.16,5.53,5.53,0,0,0-2.34-4.68,37.18,37.18,0,0,0-7.72-3.9q-2.6-1-5-2.12a17.46,17.46,0,0,1-4.12-2.56,11.16,11.16,0,0,1-2.78-3.56,11.36,11.36,0,0,1-1-5.12,11.49,11.49,0,0,1,4.42-9.5q4.42-3.51,12.06-3.51a33.79,33.79,0,0,1,3.82.22q1.91.22,3.56.52t2.91.65q1.26.35,2,.61l-1.47,6.94a20.38,20.38,0,0,0-4.08-1.43,26.36,26.36,0,0,0-6.68-.74,12.34,12.34,0,0,0-5.9,1.34,4.46,4.46,0,0,0-2.52,4.21,5.72,5.72,0,0,0,.56,2.6,6,6,0,0,0,1.73,2,14.22,14.22,0,0,0,2.91,1.69q1.73.78,4.16,1.65,3.21,1.22,5.72,2.38a17.94,17.94,0,0,1,4.29,2.73,10.51,10.51,0,0,1,2.73,3.77,13.71,13.71,0,0,1,1,5.42q0,6.24-4.64,9.45t-13.23,3.21a34.6,34.6,0,0,1-9.37-1q-3.38-1-4.6-1.52l1.47-6.94q1.39.52,4.42,1.56A25.51,25.51,0,0,0,691.2,848.36Z" transform="translate(-311.48 -100.79)"/></svg>